Coordinates
version=1
nRows=8
nColumns=63
inDegrees=yes

Units are S.I. units (second, meters, Newtons, ...)
If the header above contains a line with 'inDegrees', this indicates whether rotational values are in degrees (yes) or radians (no).

endheader
time	pelvis_tilt	pelvis_list	pelvis_rotation	pelvis_tx	pelvis_ty	pelvis_tz	hip_flexion_r	hip_adduction_r	hip_rotation_r	knee_angle_r	knee_angle_r_beta	ankle_angle_r	subtalar_angle_r	mtp_angle_r	hip_flexion_l	hip_adduction_l	hip_rotation_l	knee_angle_l	knee_angle_l_beta	ankle_angle_l	subtalar_angle_l	mtp_angle_l	L5_S1_Flex_Ext	L5_S1_Lat_Bending	L5_S1_axial_rotation	L4_L5_Flex_Ext	L4_L5_Lat_Bending	L4_L5_axial_rotation	L3_L4_Flex_Ext	L3_L4_Lat_Bending	L3_L4_axial_rotation	L2_L3_Flex_Ext	L2_L3_Lat_Bending	L2_L3_axial_rotation	L1_L2_Flex_Ext	L1_L2_Lat_Bending	L1_L2_axial_rotation	L1_T12_Flex_Ext	L1_T12_Lat_Bending	L1_T12_axial_rotation	Abs_r3	Abs_r2	Abs_r1	Abs_t1	Abs_t2	neck_flexion	neck_bending	neck_rotation	arm_flex_r	arm_add_r	arm_rot_r	elbow_flex_r	pro_sup_r	wrist_flex_r	wrist_dev_r	arm_flex_l	arm_add_l	arm_rot_l	elbow_flex_l	pro_sup_l	wrist_flex_l	wrist_dev_l
      2.50943396	     10.12702203	      5.26013088	     88.14251870	      0.47935324	      0.59590231	      0.68631749	     -6.44961658	      9.18275196	     -4.93713668	      2.86202352	      0.04995173	     11.02702351	     -3.25084500	      0.00000000	     -4.52065821	     -8.86910416	    -12.33498199	      8.73585902	      0.15246950	     26.17963829	     11.12230891	      0.00000000	     -0.06286373	      0.21038230	      0.55109506	     -0.11674424	      0.27980846	      0.58553850	     -0.10327883	      0.51152352	      0.58553850	     -0.07184696	      0.51152352	      0.48220818	     -0.05837526	      0.42901158	      0.44776474	     -0.03592034	      0.32588218	      0.41332129	     -0.44902937	      2.37988663	      3.06502539	      0.00000000	      0.00000000	     14.12436398	      6.28677000	    -15.34525664	     97.84574256	    -30.83045804	     34.02352717	     93.36754746	     88.46569249	     -5.81195043	     33.96470961	      7.44334035	    -12.29398093	     65.96429926	     22.04370709	     56.76109674	    -10.56324367	     -5.10055860
      2.52830189	     10.26022085	      5.19287518	     88.23500546	      0.47863977	      0.59545889	      0.68623712	     -6.36860495	      9.27443680	     -4.76940397	      2.97951781	      0.05200240	     11.30210195	     -3.19724648	      0.00000000	     -4.47684278	     -8.98809190	    -12.39830339	      8.60707850	      0.15022186	     26.51379432	     11.09362934	      0.00000000	     -0.09419629	      0.24346156	      0.57950171	     -0.17493194	      0.32380387	      0.61572057	     -0.15475509	      0.59195244	      0.61572057	     -0.10765694	      0.59195244	      0.50706400	     -0.08747068	      0.49646681	      0.47084514	     -0.05382376	      0.37712196	      0.43462628	     -0.67283471	      2.75408585	      3.22301466	      0.00000000	      0.00000000	     14.64240880	      6.59130837	    -14.70367685	    100.35870841	    -31.04713418	     31.41467426	     93.73442991	     88.38529666	     -6.22732788	     33.91534340	      7.56671380	    -12.24198180	     65.75983078	     22.54731542	     56.66524767	    -10.53128140	     -5.23105562
      2.54716981	     10.27638067	      5.12445689	     88.05803903	      0.47849162	      0.59513566	      0.68603631	     -6.23812557	      9.21820240	     -4.44337743	      3.24730367	      0.05667614	     11.72588501	     -2.96912600	      0.00000000	     -4.49715152	     -8.98457475	    -12.93777437	      8.61434078	      0.15034861	     26.53711684	     10.92311557	      0.00000000	     -0.12434589	      0.25937612	      0.57645222	     -0.23092276	      0.34497024	      0.61248048	     -0.20428787	      0.63064710	      0.61248048	     -0.14211492	      0.63064710	      0.50439569	     -0.11546760	      0.52891978	      0.46836742	     -0.07105124	      0.40177361	      0.43233916	     -0.88819029	      2.93411454	      3.20605429	      0.00000000	      0.00000000	     15.23029603	      7.75407504	    -13.25645901	    101.88782012	    -30.46742213	     27.65701621	     93.73316474	     88.08564580	     -5.99790583	     33.77531785	      7.27556551	    -12.39704570	     64.67790286	     23.21844897	     56.57894195	    -10.55003046	     -5.50407553
      2.56603774	     10.49206059	      5.03208309	     88.18109325	      0.47761130	      0.59464276	      0.68541032	     -6.16725748	      9.39891626	     -4.27825800	      3.35059874	      0.05847898	     12.00692355	     -2.91820362	      0.00000000	     -4.46981542	     -9.20408763	    -12.98314117	      8.65662855	      0.15108667	     26.53483213	     10.80176775	      0.00000000	     -0.12963154	      0.29674709	      0.58837404	     -0.24073874	      0.39467363	      0.62514742	     -0.21297166	      0.72151087	      0.62514742	     -0.14815589	      0.72151087	      0.51482728	     -0.12037585	      0.60512667	      0.47805391	     -0.07407146	      0.45966124	      0.44128053	     -0.92594516	      3.35686243	      3.27235989	      0.00000000	      0.00000000	     15.49231592	      7.74959230	    -13.01858229	    103.28443658	    -31.13771973	     24.95432028	     93.83844314	     87.79047161	     -6.33813393	     33.53403702	      7.25527308	    -12.16905723	     64.58398266	     23.26616355	     56.63451450	    -10.47326106	     -5.63341935
      2.58490566	     10.67099700	      4.88918562	     88.13542833	      0.47704689	      0.59430495	      0.68482923	     -5.95709220	      9.52687697	     -4.17246920	      3.62512563	      0.06327038	     12.17124149	     -2.84976808	      0.00000000	     -4.38511774	     -9.36584519	    -12.97671940	      8.80401641	      0.15365907	     26.32102985	     10.32320747	      0.00000000	     -0.10842734	      0.31553531	      0.59415369	     -0.20136041	      0.41966196	      0.63128830	     -0.17813527	      0.76719255	      0.63128830	     -0.12392160	      0.76719255	      0.51988448	     -0.10068563	      0.64343960	      0.48274987	     -0.06195538	      0.48876419	      0.44561527	     -0.77448563	      3.56939850	      3.30450458	      0.00000000	      0.00000000	     15.55986468	      7.83949851	    -13.54002693	    103.50510964	    -31.83167271	     21.92541305	     93.64665775	     87.11595840	     -6.48708759	     33.25488906	      7.22966416	    -11.80703825	     64.58046308	     22.72004941	     56.75410425	    -10.09777518	     -5.84705875
      2.60377358	     10.80046174	      4.75981132	     88.28359591	      0.47615276	      0.59405302	      0.68381003	     -5.77939839	      9.60871966	     -4.23292668	      3.89374490	      0.06795867	     12.34529061	     -2.75910967	      0.00000000	     -4.34269364	     -9.44498358	    -12.52831662	      8.80058563	      0.15359920	     25.97362869	      9.71004402	      0.00000000	     -0.06435708	      0.32031451	      0.58262364	     -0.11951754	      0.42601830	      0.61903762	     -0.10573225	      0.77881271	      0.61903762	     -0.07355371	      0.77881271	      0.50979569	     -0.05976199	      0.65318536	      0.47338171	     -0.03677364	      0.49616718	      0.43696773	     -0.45969620	      3.62346184	      3.24037791	      0.00000000	      0.00000000	     15.25639238	      7.39406256	    -14.55041409	    102.98300560	    -33.62616042	     19.60862761	     93.71215207	     86.28621249	     -6.63562744	     32.99219543	      7.22396574	    -11.43008350	     64.70096147	     22.02825397	     56.59495741	     -9.38667563	     -5.87959432
      2.62264151	     11.04353530	      4.82492738	     88.36463193	      0.47517767	      0.59380845	      0.68279552	     -5.82213209	      9.79435689	     -4.20533048	      4.14246797	      0.07229971	     12.56768827	     -2.74490238	      0.00000000	     -4.51301076	     -9.64613442	    -12.43401048	      8.81521669	      0.15385456	     25.91053953	      9.56158126	      0.00000000	     -0.05307086	      0.34692944	      0.53660723	     -0.09855790	      0.46141615	      0.57014518	     -0.08719012	      0.84352424	      0.57014518	     -0.06065469	      0.84352424	      0.46953133	     -0.04928160	      0.70745851	      0.43599337	     -0.03032469	      0.53739370	      0.40245542	     -0.37907988	      3.92453520	      2.98444843	      0.00000000	      0.00000000	     15.04619479	      6.86311688	    -14.24062497	    102.16692114	    -35.74533488	     18.09246262	     93.79110364	     85.88167922	     -6.95802860	     32.83868627	      7.10477173	    -11.20951792	     64.59318049	     21.85892039	     56.38183498	     -9.29753001	     -5.81005824
      2.64150943	     11.01603890	      4.65013110	     88.74996140	      0.47391384	      0.59372031	      0.68222101	     -5.38823748	      9.66428727	     -6.08942846	      4.67784901	      0.08164387	     13.18037344	     -0.89324575	      0.00000000	     -4.27601572	     -9.42648090	     -9.71550469	      8.76684359	      0.15301029	     25.19620135	      6.39768733	      0.00000000	     -0.00810535	      0.30726372	      0.57142939	     -0.01505245	      0.40866074	      0.60714373	     -0.01331628	      0.74708100	      0.60714373	     -0.00926360	      0.74708100	      0.50000072	     -0.00752663	      0.62657217	      0.46428638	     -0.00463140	      0.47595150	      0.42857205	     -0.05789571	      3.47582860	      3.17811886	      0.00000000	      0.00000000	     14.57707517	      6.48943331	    -17.00562812	    100.02818122	    -39.87291932	     16.61801996	     95.09368386	     78.67390947	    -10.73777635	     31.93077575	      7.72150861	    -10.89946586	     66.64594031	     20.90246650	     53.60562133	     -8.02900031	     -5.73393205
